<?xml version="1.0" ?><svg fill="black" height="24" viewBox="0 0 24 24" width="24" xmlns="http://www.w3.org/2000/svg"><path clip-rule="evenodd" d="M10.5 2C10.5 1.72386 10.7239 1.5 11 1.5H14C14.2761 1.5 14.5 1.72386 14.5 2C14.5 5.03757 16.9624 7.5 20 7.5C20.2761 7.5 20.5 7.72386 20.5 8V11C20.5 11.2761 20.2761 11.5 20 11.5C17.9506 11.5 16.0521 10.8506 14.5 9.74683V16C14.5 19.5899 11.5899 22.5 8 22.5C4.41015 22.5 1.5 19.5899 1.5 16C1.5 12.4101 4.41015 9.5 8 9.5C8.27614 9.5 8.5 9.72386 8.5 10V13C8.5 13.2761 8.27614 13.5 8 13.5C6.61929 13.5 5.5 14.6193 5.5 16C5.5 17.3807 6.61929 18.5 8 18.5C9.38071 18.5 10.5 17.3807 10.5 16V2ZM11.5 2.5V16C11.5 17.933 9.933 19.5 8 19.5C6.067 19.5 4.5 17.933 4.5 16C4.5 14.2368 5.80385 12.7781 7.5 12.5354V10.5224C4.69675 10.775 2.5 13.131 2.5 16C2.5 19.0376 4.96243 21.5 8 21.5C11.0376 21.5 13.5 19.0376 13.5 16V8.70832C13.5 8.51111 13.6159 8.33233 13.796 8.25185C13.976 8.17137 14.1865 8.20423 14.3335 8.33575C15.7216 9.57821 17.5195 10.3707 19.5 10.4855V8.48106C16.3088 8.2383 13.7617 5.6912 13.5189 2.5H11.5Z"  fill-rule="evenodd"/></svg>